<svg width="20" height="21" viewBox="0 0 20 21" fill="none" xmlns="http://www.w3.org/2000/svg">
<path fill-rule="evenodd" clip-rule="evenodd" d="M4.17003 5.18544C4.56962 4.9571 5.07867 5.09593 5.30701 5.49553L6.65639 7.85694C7.6799 7.40808 8.81092 7.15899 10.0001 7.15899C11.1894 7.15899 12.3204 7.4081 13.344 7.857L14.6934 5.49553C14.9217 5.09593 15.4308 4.9571 15.8304 5.18544C16.23 5.41378 16.3688 5.92283 16.1405 6.32243L14.7955 8.67613C16.7222 10.0341 18.0473 12.1883 18.2924 14.6602C18.3378 15.1181 17.9604 15.4923 17.5001 15.4923H2.50012C2.03988 15.4923 1.66241 15.1181 1.70781 14.6602C1.95289 12.1882 3.27811 10.034 5.20487 8.67604L3.85994 6.32243C3.6316 5.92283 3.77043 5.41378 4.17003 5.18544ZM6.66687 12.9923C6.20663 12.9923 5.83354 12.6192 5.83354 12.159C5.83354 11.6987 6.20663 11.3257 6.66687 11.3257C7.12711 11.3257 7.5002 11.6987 7.5002 12.159C7.5002 12.6192 7.12711 12.9923 6.66687 12.9923ZM12.5002 12.159C12.5002 12.6192 12.8733 12.9923 13.3335 12.9923C13.7938 12.9923 14.1669 12.6192 14.1669 12.159C14.1669 11.6987 13.7938 11.3257 13.3335 11.3257C12.8733 11.3257 12.5002 11.6987 12.5002 12.159Z" fill="white"/>
</svg>
