<svg width="20" height="21" viewBox="0 0 20 21" fill="none" xmlns="http://www.w3.org/2000/svg">
<path d="M14.6674 11.0134C14.6825 12.6416 15.6002 13.5685 16.2554 14.0239C16.6038 14.2661 16.8125 14.6935 16.6502 15.0855C16.4656 15.5311 16.1736 16.1384 15.7509 16.7561C15.0562 17.7714 14.3353 18.783 13.1996 18.8039C12.0836 18.8245 11.7248 18.1422 10.4489 18.1422C9.17339 18.1422 8.7747 18.783 7.71831 18.8245C6.62204 18.8661 5.78721 17.7267 5.0868 16.7151C3.65555 14.6458 2.56178 10.868 4.03044 8.31781C4.76004 7.0514 6.06388 6.24946 7.47909 6.2289C8.5556 6.20836 9.57167 6.95314 10.2298 6.95314C10.8875 6.95314 12.1222 6.05748 13.4203 6.18902C13.8665 6.20759 14.9746 6.34363 15.899 7.18521C16.2501 7.50482 16.125 8.04798 15.7864 8.38078C15.2715 8.88693 14.6561 9.75526 14.6674 11.0134ZM12.5701 4.82006C12.997 4.30324 13.3216 3.63776 13.422 2.93462C13.484 2.50105 13.0917 2.16844 12.6756 2.30522C12.0433 2.51309 11.4087 2.92262 10.9818 3.42214C10.5687 3.89981 10.1949 4.59723 10.0999 5.32742C10.0491 5.71753 10.3837 6.03442 10.7683 5.95171C11.4693 5.80096 12.1276 5.35601 12.5701 4.82006Z" fill="white"/>
</svg>
