<svg width="24" height="25" viewBox="0 0 24 25" fill="none" xmlns="http://www.w3.org/2000/svg">
<path d="M20.7806 13.4537L14.0306 20.2037C13.8899 20.3444 13.699 20.4235 13.5 20.4235C13.301 20.4235 13.1101 20.3444 12.9694 20.2037C12.8286 20.063 12.7496 19.8721 12.7496 19.6731C12.7496 19.474 12.8286 19.2832 12.9694 19.1424L18.4397 13.6731H3.75C3.55109 13.6731 3.36032 13.594 3.21967 13.4534C3.07902 13.3127 3 13.122 3 12.9231C3 12.7242 3.07902 12.5334 3.21967 12.3927C3.36032 12.2521 3.55109 12.1731 3.75 12.1731H18.4397L12.9694 6.70369C12.8286 6.56296 12.7496 6.37209 12.7496 6.17306C12.7496 5.97404 12.8286 5.78317 12.9694 5.64244C13.1101 5.50171 13.301 5.42265 13.5 5.42265C13.699 5.42265 13.8899 5.50171 14.0306 5.64244L20.7806 12.3924C20.8504 12.4621 20.9057 12.5448 20.9434 12.6359C20.9812 12.7269 21.0006 12.8245 21.0006 12.9231C21.0006 13.0216 20.9812 13.1192 20.9434 13.2103C20.9057 13.3013 20.8504 13.384 20.7806 13.4537Z" fill="#F5F6F6"/>
</svg>
