<svg width="24" height="25" viewBox="0 0 24 25" fill="none" xmlns="http://www.w3.org/2000/svg">
<path d="M12 1.99231C6.20156 1.99231 1.5 6.81575 1.5 12.7595C1.5 17.5173 4.50937 21.5486 8.68125 22.9736C8.73977 22.9863 8.79949 22.9926 8.85938 22.9923C9.24844 22.9923 9.39844 22.7064 9.39844 22.4579C9.39844 22.2001 9.38906 21.5251 9.38437 20.6251C9.03705 20.7065 8.68173 20.749 8.325 20.7517C6.30469 20.7517 5.84531 19.1814 5.84531 19.1814C5.36719 17.9392 4.67813 17.6064 4.67813 17.6064C3.76406 16.9642 4.67344 16.9454 4.74375 16.9454H4.74844C5.80313 17.0392 6.35625 18.0611 6.35625 18.0611C6.88125 18.9798 7.58437 19.2376 8.2125 19.2376C8.62783 19.2293 9.03673 19.1335 9.4125 18.9564C9.50625 18.2626 9.77812 17.7892 10.0781 17.5173C7.74844 17.2454 5.29688 16.322 5.29688 12.197C5.29688 11.0204 5.70469 10.0595 6.375 9.3095C6.26719 9.03762 5.90625 7.94075 6.47812 6.4595C6.55483 6.44114 6.63368 6.43326 6.7125 6.43606C7.09219 6.43606 7.95 6.58137 9.36563 7.56575C11.0857 7.08449 12.9049 7.08449 14.625 7.56575C16.0406 6.58137 16.8984 6.43606 17.2781 6.43606C17.3569 6.43326 17.4358 6.44114 17.5125 6.4595C18.0844 7.94075 17.7234 9.03762 17.6156 9.3095C18.2859 10.0642 18.6937 11.0251 18.6937 12.197C18.6937 16.3314 16.2375 17.2407 13.8984 17.5079C14.2734 17.8407 14.6109 18.497 14.6109 19.5001C14.6109 20.9392 14.5969 22.1017 14.5969 22.4532C14.5969 22.7064 14.7422 22.9923 15.1312 22.9923C15.1942 22.9926 15.2571 22.9863 15.3187 22.9736C19.4953 21.5486 22.5 17.5126 22.5 12.7595C22.5 6.81575 17.7984 1.99231 12 1.99231Z" fill="#F5F6F6"/>
</svg>
