<svg width="20" height="21" viewBox="0 0 20 21" fill="none" xmlns="http://www.w3.org/2000/svg">
<g clip-path="url(#clip0_47_352)">
<path fill-rule="evenodd" clip-rule="evenodd" d="M15.4279 13.1338C15.4135 13.1277 15.399 13.1215 15.3846 13.1154L15.4279 13.1338Z" fill="white"/>
<path fill-rule="evenodd" clip-rule="evenodd" d="M0.0615234 0.596252H19.6449V20.1796H0.0615234V0.596252ZM15.7307 13.2665C17.4543 13.9654 18.0362 14.715 18.1795 15.6073C18.3171 16.3753 18.1459 16.8734 18.1201 16.9481C17.4841 19.1234 13.9385 19.194 12.5216 17.7568C12.4789 17.7085 12.4384 17.6635 12.3999 17.6206C12.1688 17.3637 12.0091 17.186 11.856 16.8514L11.8578 16.8504C12.6091 16.4182 12.6097 16.4179 13.3416 15.9943C13.7396 16.606 14.1077 16.9425 14.7696 17.0801C15.6677 17.1898 16.5713 16.881 16.3687 15.9273C16.2479 15.4757 15.6492 15.2222 14.951 14.9265C14.4448 14.7122 13.8863 14.4757 13.4198 14.1256C12.293 13.3689 12.029 11.5301 12.9549 10.4795C13.2635 10.0909 13.7898 9.80105 14.342 9.66151L14.9182 9.58698C16.0245 9.56464 16.7162 9.85667 17.2238 10.4237C17.3651 10.5668 17.4802 10.7212 17.696 11.0557L17.3928 11.2488C17.071 11.4535 16.9333 11.5411 16.2643 11.9743C16.0838 11.5857 15.7846 11.3421 15.4685 11.2362C14.9777 11.0875 14.3585 11.2492 14.2302 11.7679C14.1855 11.9278 14.1949 12.0765 14.2655 12.3406C14.4265 12.7079 14.8946 12.9069 15.3846 13.1154L15.4279 13.1338C15.5291 13.1769 15.6309 13.2206 15.7307 13.2665ZM9.02414 9.70214H10.8537C10.8537 11.3848 10.8629 13.0618 10.8535 14.7392C10.8573 15.7673 10.9466 16.6968 10.5301 17.4648C10.242 18.0506 9.69164 18.4354 9.05383 18.6212C8.07383 18.8462 7.1368 18.7179 6.43961 18.2995C5.97289 18.0132 5.60852 17.5726 5.36117 17.065L6.84867 16.154C6.8618 16.1595 6.90086 16.2301 6.95289 16.3214C7.14242 16.6392 7.30602 16.864 7.62774 17.0221C7.94383 17.13 8.63742 17.1989 8.90508 16.6429C9.06867 16.3603 9.01664 15.4381 9.01664 14.4321L9.02414 9.70214Z" fill="white"/>
</g>
<defs>
<clipPath id="clip0_47_352">
<rect width="20" height="20" fill="white" transform="translate(0 0.49231)"/>
</clipPath>
</defs>
</svg>
