<svg width="24" height="25" viewBox="0 0 24 25" fill="none" xmlns="http://www.w3.org/2000/svg">
<path d="M20.8205 1.99231H3.29437C2.33672 1.99231 1.5 2.68137 1.5 3.62778V21.1928C1.5 22.1443 2.33672 22.9923 3.29437 22.9923H20.8153C21.7781 22.9923 22.5 22.1387 22.5 21.1928V3.62778C22.5056 2.68137 21.7781 1.99231 20.8205 1.99231ZM8.00953 19.4968H5.00109V10.1429H8.00953V19.4968ZM6.60938 8.72075H6.58781C5.625 8.72075 5.00156 8.00403 5.00156 7.10684C5.00156 6.19325 5.64141 5.4934 6.62578 5.4934C7.61016 5.4934 8.2125 6.18809 8.23406 7.10684C8.23359 8.00403 7.61016 8.72075 6.60938 8.72075ZM19.0045 19.4968H15.9961V14.3823C15.9961 13.157 15.5583 12.3198 14.4698 12.3198C13.6383 12.3198 13.1461 12.8823 12.9272 13.4303C12.8452 13.6272 12.8231 13.8953 12.8231 14.169V19.4968H9.81469V10.1429H12.8231V11.4447C13.2609 10.8212 13.9448 9.92403 15.5363 9.92403C17.5111 9.92403 19.005 11.2257 19.005 14.0322L19.0045 19.4968Z" fill="#F5F6F6"/>
</svg>
