<svg width="20" height="21" viewBox="0 0 20 21" fill="none" xmlns="http://www.w3.org/2000/svg">
<path d="M12.7082 14.4506H11.2498C10.0998 14.4506 9.1665 13.5173 9.1665 12.3673C9.1665 12.0256 9.44984 11.7423 9.7915 11.7423C10.1332 11.7423 10.4165 12.0256 10.4165 12.3673C10.4165 12.8256 10.7915 13.2006 11.2498 13.2006H12.7082C13.1665 13.2006 13.5415 12.8256 13.5415 12.3673C13.5415 11.909 13.1665 11.534 12.7082 11.534H11.2498C10.0998 11.534 9.1665 10.6006 9.1665 9.45064C9.1665 8.30064 10.0998 7.36731 11.2498 7.36731H12.7082C13.8582 7.36731 14.7915 8.30064 14.7915 9.45064C14.7915 9.79231 14.5082 10.0756 14.1665 10.0756C13.8248 10.0756 13.5415 9.79231 13.5415 9.45064C13.5415 8.99231 13.1665 8.61731 12.7082 8.61731H11.2498C10.7915 8.61731 10.4165 8.99231 10.4165 9.45064C10.4165 9.90898 10.7915 10.284 11.2498 10.284H12.7082C13.8582 10.284 14.7915 11.2173 14.7915 12.3673C14.7915 13.5173 13.8582 14.4506 12.7082 14.4506Z" fill="white"/>
<path d="M10 19.3339C9.75837 19.3339 9.51673 19.2756 9.29173 19.1506L8.05836 18.559C7.75003 18.409 7.61671 18.034 7.76671 17.7256C7.91671 17.4173 8.28338 17.2839 8.60005 17.4339L9.85839 18.0423C9.95006 18.0923 10.0334 18.0923 10.0917 18.0589L16.7584 14.359C16.825 14.3256 16.8667 14.2506 16.8667 14.1756V6.82563C16.8667 6.75063 16.825 6.68396 16.7584 6.64229L10.0917 2.94229C10.025 2.90896 9.95004 2.90896 9.8917 2.94229L3.22504 6.64229C3.15837 6.67563 3.1167 6.75063 3.1167 6.82563V14.1756C3.1167 14.2506 3.15837 14.3173 3.22504 14.359L5.31671 15.5173C5.64171 15.7006 6.02504 15.6923 6.35004 15.5006C6.67504 15.309 6.8667 14.9756 6.8667 14.6006L6.87504 7.99229C6.87504 7.65062 7.15837 7.36729 7.50004 7.36729C7.84171 7.36729 8.12504 7.65062 8.12504 7.99229L8.1167 14.6006C8.1167 15.4173 7.69171 16.1589 6.98338 16.5756C6.27504 16.9923 5.42506 17.0006 4.70839 16.6006L2.61672 15.4423C2.15005 15.184 1.8667 14.6923 1.8667 14.1673V6.81729C1.8667 6.29229 2.15005 5.80062 2.61672 5.54229L9.28339 1.84229C9.72505 1.59229 10.2584 1.59229 10.7001 1.84229L17.3667 5.54229C17.8334 5.80062 18.1167 6.29229 18.1167 6.81729V14.1673C18.1167 14.6923 17.8334 15.184 17.3667 15.4423L10.7001 19.1423C10.4834 19.2673 10.2417 19.3339 10 19.3339Z" fill="white"/>
</svg>
