<svg width="17" height="17" viewBox="0 0 17 17" fill="none" xmlns="http://www.w3.org/2000/svg">
<path d="M11.4712 2.12549C11.2587 2.12549 11.0962 2.28799 11.0962 2.50049C11.0962 2.71299 11.2587 2.87549 11.4712 2.87549H14.3213L8.52124 8.67554C8.37124 8.82554 8.37124 9.06294 8.52124 9.20044C8.59624 9.27544 8.69619 9.31299 8.78369 9.31299C8.87119 9.31299 8.97114 9.27544 9.04614 9.20044L14.8462 3.40039V6.25049C14.8462 6.46299 15.0087 6.62549 15.2212 6.62549C15.4337 6.62549 15.5962 6.46299 15.5962 6.25049V2.50049C15.5962 2.28799 15.4337 2.12549 15.2212 2.12549H11.4712ZM3.97119 4.62549C3.07119 4.62549 2.34619 5.35049 2.34619 6.25049V13.7505C2.34619 14.6505 3.07119 15.3755 3.97119 15.3755H11.4712C12.3712 15.3755 13.0962 14.6505 13.0962 13.7505V8.12549C13.0962 7.91299 12.9337 7.75049 12.7212 7.75049C12.5087 7.75049 12.3462 7.91299 12.3462 8.12549V13.7505C12.3462 14.238 11.9587 14.6255 11.4712 14.6255H3.97119C3.48369 14.6255 3.09619 14.238 3.09619 13.7505V6.25049C3.09619 5.76299 3.48369 5.37549 3.97119 5.37549H9.59619C9.80869 5.37549 9.97119 5.21299 9.97119 5.00049C9.97119 4.78799 9.80869 4.62549 9.59619 4.62549H3.97119Z" fill="white"/>
</svg>
