<svg width="20" height="21" viewBox="0 0 20 21" fill="none" xmlns="http://www.w3.org/2000/svg">
<path d="M10 12.2736C10.9838 12.2736 11.7813 11.4761 11.7813 10.4923C11.7813 9.50855 10.9838 8.71106 10 8.71106C9.01624 8.71106 8.21875 9.50855 8.21875 10.4923C8.21875 11.4761 9.01624 12.2736 10 12.2736Z" fill="white"/>
<path d="M16.7656 7.55481C16.4219 7.42981 16.0625 7.30481 15.6875 7.19544C15.7812 6.82044 15.8594 6.44544 15.9219 6.08606C16.25 4.02356 15.8906 2.57043 14.8906 2.00793C14.5937 1.83606 14.2656 1.75793 13.8906 1.75793C12.7969 1.75793 11.4062 2.57043 10 3.92981C8.59375 2.57043 7.20312 1.75793 6.10937 1.75793C5.73437 1.75793 5.40625 1.83606 5.10937 2.00793C4.10937 2.58606 3.75 4.03918 4.07812 6.08606C4.14062 6.44544 4.21875 6.82044 4.3125 7.19544C3.9375 7.30481 3.57812 7.41419 3.23438 7.55481C1.28125 8.30481 0.21875 9.33606 0.21875 10.4923C0.21875 11.6486 1.29688 12.6798 3.23438 13.4298C3.57812 13.5548 3.9375 13.6798 4.3125 13.7892C4.21875 14.1642 4.14062 14.5392 4.07812 14.8986C3.75 16.9611 4.10937 18.4142 5.10937 18.9767C5.40625 19.1486 5.73437 19.2267 6.10937 19.2267C7.21875 19.2267 8.60937 18.4142 10 17.0548C11.4062 18.4142 12.7969 19.2267 13.8906 19.2267C14.2656 19.2267 14.5937 19.1486 14.8906 18.9767C15.8906 18.3986 16.25 16.9454 15.9219 14.8986C15.8594 14.5392 15.7812 14.1642 15.6875 13.7892C16.0625 13.6798 16.4219 13.5704 16.7656 13.4298C18.7187 12.6798 19.7812 11.6486 19.7812 10.4923C19.7812 9.33606 18.7187 8.30481 16.7656 7.55481ZM14.4531 2.78918C15.0937 3.16418 15.3125 4.32043 15.0469 5.96106C15 6.28919 14.9219 6.63294 14.8281 6.99231C14.0156 6.80481 13.1562 6.67981 12.25 6.60168C11.7187 5.85168 11.1719 5.17981 10.625 4.57043C11.7812 3.42981 12.9531 2.64856 13.9062 2.64856C14.1094 2.64856 14.2969 2.69543 14.4531 2.78918ZM12.7031 12.0548C12.4219 12.5548 12.0937 13.0548 11.75 13.5548C11.1719 13.6017 10.5937 13.6173 10 13.6173C9.39062 13.6173 8.8125 13.6017 8.25 13.5548C7.90625 13.0548 7.59375 12.5548 7.3125 12.0548C7.01562 11.5392 6.73437 11.0079 6.48437 10.4923C6.73437 9.97669 7.01562 9.44544 7.3125 8.92981C7.59375 8.42981 7.92187 7.92981 8.26562 7.42981C8.84375 7.38294 9.42187 7.36731 10.0156 7.36731C10.625 7.36731 11.2031 7.38294 11.7656 7.42981C12.1094 7.92981 12.4219 8.42981 12.7031 8.92981C13 9.44544 13.2812 9.97669 13.5312 10.4923C13.2656 11.0079 13 11.5236 12.7031 12.0548ZM14 11.5392C14.2344 12.0861 14.4219 12.6173 14.5937 13.1486C14.0625 13.2736 13.5 13.3673 12.9062 13.4454C13.0937 13.1486 13.2969 12.8361 13.4687 12.5079C13.6562 12.1798 13.8281 11.8517 14 11.5392ZM10 15.7736C9.625 15.3673 9.26562 14.9298 8.92187 14.4767C9.28125 14.4923 9.64062 14.5079 10 14.5079C10.3594 14.5079 10.7187 14.4923 11.0781 14.4767C10.7344 14.9298 10.375 15.3673 10 15.7736ZM7.09375 13.4298C6.5 13.3517 5.9375 13.2579 5.40625 13.1329C5.57812 12.6173 5.76562 12.0704 6 11.5236C6.17187 11.8361 6.34375 12.1642 6.53125 12.4767C6.71875 12.8204 6.90625 13.1173 7.09375 13.4298ZM6 9.44544C5.76562 8.89856 5.57812 8.36731 5.40625 7.83606C5.9375 7.71106 6.5 7.61731 7.09375 7.53919C6.90625 7.83606 6.70312 8.14856 6.53125 8.47669C6.34375 8.80481 6.17187 9.13293 6 9.44544ZM10 5.21106C10.375 5.61731 10.7344 6.05481 11.0781 6.50794C10.7187 6.49231 10.3594 6.47669 10 6.47669C9.64062 6.47669 9.28125 6.49231 8.92187 6.50794C9.26562 6.05481 9.625 5.61731 10 5.21106ZM13.4687 8.49231L12.9062 7.55481C13.5 7.63294 14.0625 7.72669 14.5937 7.85169C14.4219 8.36731 14.2344 8.91419 14 9.46106C13.8281 9.13294 13.6562 8.80481 13.4687 8.49231ZM4.95312 5.96106C4.6875 4.32043 4.90625 3.16418 5.54687 2.78918C5.70312 2.69543 5.89062 2.64856 6.09375 2.64856C7.03125 2.64856 8.20312 3.41418 9.375 4.57043C8.82812 5.16418 8.28125 5.85168 7.75 6.60168C6.84375 6.67981 5.98437 6.82044 5.17187 6.99231C5.07812 6.63294 5.01562 6.28919 4.95312 5.96106ZM1.09375 10.4923C1.09375 9.75794 1.98438 8.97669 3.54687 8.39856C3.85937 8.27356 4.20312 8.16419 4.54687 8.07044C4.79687 8.85169 5.10937 9.67981 5.48437 10.5079C5.10937 11.3361 4.78125 12.1486 4.54687 12.9298C2.39062 12.3048 1.09375 11.3673 1.09375 10.4923ZM5.54687 18.1954C4.90625 17.8204 4.6875 16.6642 4.95312 15.0236C5 14.6954 5.07812 14.3517 5.17187 13.9923C5.98437 14.1798 6.84375 14.3048 7.75 14.3829C8.28125 15.1329 8.82812 15.8048 9.375 16.4142C8.21875 17.5548 7.04687 18.3361 6.09375 18.3361C5.89062 18.3361 5.70312 18.2892 5.54687 18.1954ZM15.0469 15.0236C15.3125 16.6642 15.0937 17.8204 14.4531 18.1954C14.2969 18.2892 14.1094 18.3361 13.9062 18.3361C12.9687 18.3361 11.7969 17.5704 10.625 16.4142C11.1719 15.8204 11.7187 15.1329 12.25 14.3829C13.1562 14.3048 14.0156 14.1642 14.8281 13.9923C14.9219 14.3517 14.9844 14.6954 15.0469 15.0236ZM16.4531 12.5861C16.1406 12.7111 15.7969 12.8204 15.4531 12.9142C15.2031 12.1329 14.8906 11.3048 14.5156 10.4767C14.8906 9.64856 15.2187 8.83606 15.4531 8.05481C17.6094 8.67981 18.9062 9.61731 18.9062 10.4923C18.9062 11.2267 18 12.0079 16.4531 12.5861Z" fill="white"/>
</svg>
