<svg width="24" height="25" viewBox="0 0 24 25" fill="none" xmlns="http://www.w3.org/2000/svg">
<path d="M19.7608 4.60275L7.54987 2.4465C7.15814 2.37757 6.75508 2.46704 6.42931 2.69524C6.10354 2.92343 5.88174 3.27167 5.81268 3.66338L3.02362 19.5071C2.98951 19.7012 2.99398 19.9001 3.03677 20.0925C3.07957 20.2849 3.15985 20.4669 3.27303 20.6283C3.38621 20.7896 3.53008 20.927 3.6964 21.0327C3.86273 21.1384 4.04825 21.2103 4.24237 21.2443L16.4533 23.4006C16.6475 23.4348 16.8465 23.4304 17.039 23.3877C17.2314 23.345 17.4136 23.2647 17.575 23.1515C17.7365 23.0383 17.874 22.8944 17.9798 22.728C18.0855 22.5616 18.1575 22.376 18.1914 22.1818L20.9805 6.33807C21.0488 5.94621 20.9587 5.54327 20.73 5.21785C20.5013 4.89242 20.1526 4.67117 19.7608 4.60275ZM16.7121 21.9231L4.50018 19.7668L7.28924 3.92307L19.5002 6.07932L16.7121 21.9231ZM8.37581 6.39994C8.41055 6.20416 8.52161 6.0302 8.68457 5.91628C8.84754 5.80236 9.04907 5.75782 9.24487 5.79244L17.0261 7.16588C17.2111 7.19827 17.3771 7.29885 17.4915 7.44774C17.6058 7.59663 17.6602 7.783 17.6439 7.97003C17.6275 8.15706 17.5416 8.33115 17.4031 8.4579C17.2646 8.58466 17.0836 8.65485 16.8958 8.65463C16.8518 8.65457 16.8079 8.6508 16.7646 8.64338L8.98331 7.269C8.78753 7.23426 8.61356 7.1232 8.49964 6.96024C8.38573 6.79727 8.34118 6.59574 8.37581 6.39994ZM7.85643 9.35494C7.87353 9.25792 7.90957 9.16521 7.9625 9.08212C8.01543 8.99903 8.08421 8.92718 8.16492 8.87068C8.24562 8.81418 8.33667 8.77413 8.43285 8.75282C8.52904 8.73152 8.62848 8.72937 8.72549 8.7465L16.5067 10.1209C16.693 10.152 16.8606 10.2523 16.9762 10.4016C17.0917 10.5509 17.1467 10.7383 17.1301 10.9264C17.1136 11.1145 17.0267 11.2894 16.8868 11.4163C16.7469 11.5431 16.5643 11.6125 16.3755 11.6106C16.3311 11.6107 16.2869 11.6066 16.2433 11.5984L8.46206 10.2249C8.26643 10.1898 8.09277 10.0784 7.97921 9.91527C7.86565 9.75214 7.8215 9.55061 7.85643 9.35494ZM7.33612 12.309C7.37151 12.1137 7.48285 11.9405 7.64574 11.8271C7.80863 11.7138 8.0098 11.6696 8.20518 11.7043L12.0939 12.3878C12.2788 12.4201 12.4448 12.5206 12.5591 12.6694C12.6735 12.8182 12.7279 13.0045 12.7117 13.1914C12.6955 13.3784 12.6097 13.5525 12.4714 13.6793C12.3331 13.8061 12.1522 13.8765 11.9646 13.8765C11.9206 13.8765 11.8767 13.8727 11.8333 13.8653L7.94268 13.1781C7.74708 13.1431 7.57334 13.032 7.45962 12.869C7.34589 12.7061 7.30148 12.5047 7.33612 12.309Z" fill="white"/>
</svg>
